<svg xmlns="http://www.w3.org/2000/svg" width="128" height="128" viewBox="0 0 16 16"><g stroke-miterlimit="10"><path fill="#4d4d4d" stroke="#ececec" stroke-linejoin="round" stroke-width=".429" d="M12.737 4.268 8.467 1.51l-4.27 2.758 4.27 2.758Z"/><path fill="#999" stroke="#ececec" stroke-linejoin="bevel" stroke-width=".429" d="m12.737 8.405-4.27-2.758Z"/><path fill="#999" stroke="#ececec" stroke-linejoin="bevel" stroke-width=".429" d="m4.197 4.268 4.27 2.758 4.27-2.758v4.137l-4.27 2.758-4.27-2.758Z"/><path fill="#999" stroke="#ececec" stroke-width=".429" d="M8.467 1.51v4.137"/><path fill="#999" stroke="#ececec" stroke-linejoin="round" stroke-width=".429" d="m12.737 4.268 1.067 2.24-1.067-.516Z"/><path fill="#999" stroke="#ececec" stroke-width=".429" d="M8.467 11.163V7.026"/><path fill="#999" stroke="#ececec" stroke-linejoin="bevel" stroke-width=".429" d="m8.467 5.647-4.27 2.758Z"/><path fill="#999" stroke="#ececec" stroke-linejoin="bevel" stroke-width=".429" d="M4.197 4.268 3.129 7.026 7.4 9.784l1.068-2.758Z"/><rect width="15.094" height="3.226" x=".92" y="12.603" fill="#4d4d4d" stroke="#999" stroke-linejoin="bevel" stroke-width=".252" rx="1.208" ry="1.155"/><g fill="#b3b3b3" stroke-linejoin="bevel" stroke-width=".186" font-size="2.235"><path d="M3.173 15.015h-.267l-.766-1.46v1.46h-.201v-1.632h.333l.7 1.333v-1.333h.2z"/><path d="M4.808 13.57q.1.11.151.27.054.158.054.36 0 .202-.055.362-.053.159-.15.265-.1.11-.236.166-.136.056-.311.056-.17 0-.31-.057-.14-.057-.238-.165-.097-.109-.15-.266-.053-.158-.053-.361 0-.2.052-.357.053-.16.153-.272.095-.108.236-.164.143-.057.31-.057.174 0 .312.058.139.057.235.163zm-.02.63q0-.318-.14-.49-.142-.173-.386-.173-.247 0-.388.173-.14.172-.14.49 0 .321.143.492.144.17.385.17.241 0 .383-.17.144-.17.144-.492z"/><path d="M6.453 13.576h-.578v1.44H5.66v-1.44h-.578v-.193h1.37z"/><path d="M8.485 13.576h-.818v.46h.703v.194h-.703v.785h-.215v-1.632h1.033z"/><path d="M9.936 13.57q.1.11.151.27.054.158.054.36 0 .202-.055.362-.053.159-.15.265-.1.11-.236.166-.136.056-.311.056-.17 0-.31-.057-.14-.057-.237-.165-.098-.109-.151-.266-.053-.158-.053-.361 0-.2.053-.357.052-.16.152-.272.095-.108.236-.164.143-.057.31-.057.174 0 .312.058.139.057.235.163zm-.02.63q0-.318-.14-.49-.141-.173-.386-.173-.246 0-.388.173-.14.172-.14.49 0 .321.144.492.143.17.384.17.241 0 .384-.17.143-.17.143-.492z"/><path d="M11.7 14.36q0 .178-.04.31-.038.132-.126.22-.083.083-.195.121-.112.038-.26.038-.153 0-.266-.04-.113-.04-.19-.12-.088-.09-.127-.217-.038-.127-.038-.312v-.977h.215v.988q0 .133.017.21.019.076.061.138.048.072.13.108.082.036.197.036.116 0 .198-.035.081-.036.13-.109.043-.062.06-.142.018-.081.018-.2v-.994h.215z"/><path d="M13.344 15.015h-.266l-.767-1.46v1.46h-.201v-1.632h.334l.699 1.333v-1.333h.201z"/><path d="M15.14 14.201q0 .223-.096.403-.096.181-.255.281-.111.069-.248.1-.136.03-.358.03h-.409v-1.632h.404q.237 0 .376.036.14.034.237.094.165.104.257.277.093.173.093.411zm-.224-.003q0-.192-.066-.324-.067-.131-.198-.207-.096-.054-.203-.075-.108-.022-.258-.022h-.202v1.26h.202q.156 0 .27-.024.117-.023.214-.085.12-.078.18-.205.06-.128.06-.318z"/></g></g></svg>