<!-- Generated by IcoMoon.io -->
<svg version="1.1" xmlns="http://www.w3.org/2000/svg" width="30" height="32" viewBox="0 0 30 32">
<title>brush</title>
<path d="M29.088 1.92q1.568 1.568 0.768 3.584-4.32 10.848-15.584 17.536-0.544 0.32-0.928 0.384-0.512 3.328-3.040 5.472t-5.888 2.144q-0.768 0-1.472-0.128l-2.432-0.352-0.384-2.432q-0.64-4.064 1.76-7.136 2.176-2.752 5.76-3.328 0.16-0.544 0.32-0.864 6.688-11.296 17.536-15.616 0.608-0.224 1.248-0.224 1.376 0 2.336 0.96zM4.416 27.68q2.272 0 3.872-1.408t1.856-3.648l-1.728-1.696q-2.464 0.256-3.936 2.176t-1.056 4.544q0.32 0.032 0.992 0.032zM12.576 20.192q1.216-0.672 2.976-1.952-2.688-2.688-2.72-2.752-1.12 1.536-1.984 2.976zM16.896 17.248q6.816-5.28 9.888-12.96-7.776 3.072-12.992 9.92z"></path>
</svg>
