<!-- Generated by IcoMoon.io -->
<svg version="1.1" xmlns="http://www.w3.org/2000/svg" width="22" height="32" viewBox="0 0 22 32">
<title>cancel</title>
<path d="M0 24.32q0-1.152 0.832-1.984l6.24-6.24-6.24-6.272q-0.832-0.8-0.832-1.952t0.832-1.952 1.952-0.8 1.952 0.8l6.272 6.272 6.24-6.272q0.8-0.8 1.952-0.8t1.952 0.8 0.8 1.952-0.8 1.952l-6.24 6.272 6.24 6.24q0.8 0.832 0.8 1.984t-0.8 1.952-1.952 0.8-1.952-0.8l-6.24-6.24-6.272 6.24q-0.8 0.8-1.952 0.8t-1.952-0.8q-0.832-0.832-0.832-1.952z"></path>
</svg>
