<!-- Generated by IcoMoon.io -->
<svg version="1.1" xmlns="http://www.w3.org/2000/svg" width="32" height="32" viewBox="0 0 32 32">
<title>copy-task</title>
<path d="M6.912 4.672v2.24h-1.056c-0.64 0-1.184 0.544-1.184 1.184v20.32c0 0.64 0.544 1.152 1.184 1.152h15.84c0.64 0 1.184-0.512 1.184-1.152v-1.088h2.208v1.152c0 1.856-1.504 3.36-3.36 3.36h-15.936c-1.856 0-3.36-1.504-3.36-3.36v-20.448c0-1.856 1.504-3.36 3.36-3.36h1.12zM26.24 0.16c1.856 0 3.36 1.504 3.36 3.36v20.448c0 1.824-1.504 3.36-3.36 3.36h-15.968c-1.856 0-3.36-1.536-3.36-3.36v-20.448c0-1.856 1.504-3.36 3.36-3.36h15.968zM26.208 2.4h-15.84c-0.64 0-1.184 0.512-1.184 1.152v20.32c0 0.64 0.544 1.184 1.184 1.184h15.84c0.64 0 1.152-0.544 1.152-1.184v-20.32c0-0.64-0.512-1.152-1.152-1.152zM25.664 8.096h-5.28v15.104h-4.192v-15.104h-5.248v-3.392h14.72v3.392z"></path>
</svg>
