<!-- Generated by IcoMoon.io -->
<svg version="1.1" xmlns="http://www.w3.org/2000/svg" width="32" height="32" viewBox="0 0 32 32">
<title>docs</title>
<path d="M30.272 6.848q0.736 0 1.216 0.512t0.512 1.216v21.696q0 0.736-0.512 1.216t-1.216 0.512h-17.12q-0.736 0-1.216-0.512t-0.512-1.216v-5.12h-9.696q-0.736 0-1.216-0.512t-0.512-1.216v-12q0-0.704 0.352-1.568t0.864-1.344l7.296-7.296q0.48-0.512 1.344-0.864t1.568-0.352h7.424q0.736 0 1.216 0.512t0.512 1.216v5.856q1.216-0.736 2.272-0.736h7.424zM20.576 10.656l-5.344 5.344h5.344v-5.344zM9.152 3.808l-5.344 5.344h5.344v-5.344zM12.64 15.36l5.632-5.632v-7.456h-6.848v7.456q0 0.704-0.48 1.184t-1.216 0.512h-7.456v11.424h9.152v-4.576q0-0.704 0.352-1.568t0.864-1.344zM29.728 29.728v-20.576h-6.88v7.424q0 0.704-0.48 1.216t-1.216 0.48h-7.424v11.456h16z"></path>
</svg>
