<?xml version="1.0" encoding="UTF-8" standalone="no"?>
<svg
   class="svg-icon"
   viewBox="0 0 1024 1024"
   version="1.1"
   xmlns="http://www.w3.org/2000/svg"
   xmlns:svg="http://www.w3.org/2000/svg">
  <path
     d="m 514.2874,272.64974 -312.43172,2.28831 -1.52554,546.1355 501.2004,0.58515 2.50235,-251.86056 89.55277,-74.14528 V 871.2448 c 0,28.32486 -22.96627,51.29114 -51.29113,51.29114 H 152.44698 c -28.32487,0 -51.29114,-22.96628 -51.29114,-51.29114 V 230.10611 c 0,-28.32589 22.96627,-51.29113 51.29114,-51.29113 h 410.84211 l 1.27693,1.27795 z m 311.79178,-75.27246 c 10.07018,10.14112 4.24671,35.14483 -6.21174,48.43313 -14.2633,14.73844 -200.11585,201.39766 -310.31865,311.74477 -92.12719,42.07491 1.75689,0.44202 -92.20352,40.0629 53.74888,-93.52164 -0.64208,0.74081 53.04739,-94.35221 44.05351,-44.00333 295.66318,-293.86553 306.73262,-304.77215 18.15588,-14.63093 39.71892,-9.84057 48.9539,-1.11644 z m -19.53275,-95.91219 c -30.95449,1.21446 -60.31974,14.06259 -82.22105,35.9895 -11.99616,11.84563 -351.97543,351.33543 -351.97543,351.33543 -2.67981,2.7054 -4.608,6.04876 -5.59718,9.73004 -9.20371,34.03572 -55.36051,185.11668 -55.82439,186.61888 -2.35417,7.7138 -0.25088,16.10445 5.45997,21.80199 4.00794,4.03251 9.46688,6.28633 15.15213,6.27302 2.22925,0.0133 4.4585,-0.32461 6.58739,-0.98918 1.57799,-0.52634 157.49223,-50.93991 183.14957,-58.60352 3.38125,-1.01376 6.46246,-2.84263 8.97946,-5.31047 16.19148,-15.97849 328.67123,-323.61164 353.90259,-349.74515 26.14579,-26.92301 39.15673,-55.02259 38.656,-83.34848 -1.99066,-31.11833 -16.57856,-60.09446 -40.3968,-80.2304 -19.87175,-20.77491 -47.19616,-32.80896 -75.9337,-33.43462 v 0 z"/>
</svg>
