<!-- Generated by IcoMoon.io -->
<svg version="1.1" xmlns="http://www.w3.org/2000/svg" width="32" height="32" viewBox="0 0 32 32">
<title>paste-json</title>
<path d="M8.8 1.952c-3.52 0-6.4 2.88-6.432 6.4-0.032 2.016-0.032 4.192-0.064 5.728 0 0.32-0.224 0.544-0.512 0.544h-0.352c-0.010-0-0.021-0-0.032-0-0.76 0-1.376 0.616-1.376 1.376 0 0 0 0 0 0v-0c0 0 0 0 0 0 0 0.76 0.616 1.376 1.376 1.376 0.011 0 0.022-0 0.034-0l-0.002 0h0.352c1.792 0 3.296-1.472 3.296-3.264 0.032-1.536 0.032-3.744 0.064-5.76 0-2.016 1.6-3.616 3.648-3.616h2.24c0.010 0 0.021 0 0.032 0 0.76 0 1.376-0.616 1.376-1.376 0-0 0-0 0-0v0c0-0.010 0-0.021 0-0.032 0-0.76-0.616-1.376-1.376-1.376-0.011 0-0.023 0-0.034 0l0.002-0zM30.176 14.432c-1.824 0-3.296 1.472-3.328 3.264 0 1.536-0.032 3.744-0.032 5.76-0.032 2.016-1.632 3.616-3.648 3.616h-2.272c-0.76 0-1.376 0.616-1.376 1.376v0c-0 0.010-0 0.021-0 0.032 0 0.76 0.616 1.376 1.376 1.376 0 0 0 0 0 0h2.272c3.52 0 6.4-2.88 6.432-6.4 0-2.016 0.032-4.224 0.032-5.728 0-0.32 0.224-0.544 0.544-0.544h0.352c0.76 0 1.376-0.616 1.376-1.376v0c0-0.76-0.616-1.376-1.376-1.376v0zM1.44 14.624c-0.010-0-0.021-0-0.032-0-0.76 0-1.376 0.616-1.376 1.376 0 0 0 0 0 0v-0c0 0 0 0 0 0 0 0.76 0.616 1.376 1.376 1.376 0.011 0 0.022-0 0.034-0l-0.002 0h0.352c0.32 0 0.512 0.224 0.512 0.512 0.032 1.504 0.032 3.68 0.064 5.664 0.032 3.488 2.912 6.304 6.432 6.304h2.24c0.010 0 0.021 0 0.032 0 0.76 0 1.376-0.616 1.376-1.376 0-0.011-0-0.023-0-0.034l0 0.002c0-0 0-0 0-0 0-0.76-0.616-1.376-1.376-1.376-0.011 0-0.022 0-0.034 0l0.002-0h-2.24c-2.048 0-3.648-1.6-3.648-3.552-0.032-1.984-0.032-4.16-0.064-5.664 0-1.792-1.504-3.232-3.296-3.232zM20.896 1.952c-0 0-0 0-0 0-0.76 0-1.376 0.616-1.376 1.376 0 0.011 0 0.022 0 0.034l-0-0.002c0 0.76 0.616 1.376 1.376 1.376v0h2.272c2.016 0 3.616 1.568 3.648 3.552 0 1.984 0.032 4.16 0.032 5.664 0.032 1.792 1.536 3.232 3.328 3.232h0.352c0.76 0 1.376-0.616 1.376-1.376v0c0-0.76-0.616-1.376-1.376-1.376v0h-0.352c-0.32 0-0.544-0.224-0.544-0.512 0-1.504-0.032-3.68-0.032-5.664-0.032-3.488-2.944-6.304-6.432-6.304zM8.768 14.080c-1.043 0-1.888 0.702-1.888 1.568v0c0 0.866 0.845 1.568 1.888 1.568v0h8.064c1.043 0 1.888-0.702 1.888-1.568v0c0-0.866-0.845-1.568-1.888-1.568v0zM21.952 13.472c-0.725 0-1.312 1.003-1.312 2.24v0c0 1.237 0.587 2.24 1.312 2.24v0h1.76c0.725 0 1.312-1.003 1.312-2.24v0c0-1.237-0.587-2.24-1.312-2.24v0zM8.768 8.32c-0 0-0 0-0 0-1.043 0-1.888 0.702-1.888 1.568 0 0.011 0 0.022 0 0.034l-0-0.002c0 0.866 0.845 1.568 1.888 1.568v0h8.064c1.043 0 1.888-0.702 1.888-1.568v0c0-0.010 0-0.021 0-0.032 0-0.866-0.845-1.568-1.888-1.568-0 0-0 0-0 0h0zM21.952 7.712c-0.725 0-1.312 1.003-1.312 2.24v0c0 1.237 0.587 2.24 1.312 2.24v0h1.76c0.725 0 1.312-1.003 1.312-2.24v0c0-1.237-0.587-2.24-1.312-2.24v0zM8.768 19.872c-1.043 0-1.888 0.702-1.888 1.568v0c0 0.866 0.845 1.568 1.888 1.568v0h8.064c1.043 0 1.888-0.702 1.888-1.568v0c0-0.866-0.845-1.568-1.888-1.568v0zM21.952 19.232c-0 0-0 0-0 0-0.725 0-1.312 1.003-1.312 2.24 0 0.011 0 0.023 0 0.034v-0.002c0 1.237 0.587 2.24 1.312 2.24v0h1.76c0.725 0 1.312-1.003 1.312-2.24v0c0-0.010 0-0.021 0-0.032 0-1.237-0.587-2.24-1.312-2.24-0 0-0 0-0 0v0z"></path>
</svg>
