<!-- Generated by IcoMoon.io -->
<svg version="1.1" xmlns="http://www.w3.org/2000/svg" width="22" height="32" viewBox="0 0 22 32">
<title>puzzle</title>
<path d="M18.752 14.336q-1.184 0-2.048 1.088t-0.864 2.624 0.864 2.688 2.048 1.088q0.704 0 1.376-0.416 0.832-0.544 1.184-0.352t0.384 0.768v4.608q0 0.992-0.768 1.728t-1.76 0.736h-4.576q-0.512 0-0.736-0.288t0.064-0.992q0.672-0.8 0.672-1.632 0-1.216-1.088-2.048t-2.656-0.832-2.656 0.832-1.12 2.048q0 0.704 0.416 1.408 0.544 0.832 0.384 1.184t-0.8 0.32h-4.576q-1.056 0-1.76-0.736t-0.736-1.728v-4.608q0-0.512 0.288-0.736t0.992 0.096q0.768 0.64 1.632 0.64 1.216 0 2.080-1.088t0.864-2.688-0.864-2.624-2.080-1.088q-0.672 0-1.344 0.416-0.832 0.544-1.216 0.384t-0.352-0.8v-2.912q0-1.056 0.736-1.792t1.76-0.736h4.576q0.608 0 0.8-0.32t-0.352-1.184q-0.448-0.64-0.448-1.408 0-1.216 1.12-2.048t2.656-0.832 2.656 0.832 1.088 2.048q0 0.832-0.672 1.632-0.32 0.672-0.064 0.992t0.736 0.288h4.576q0.992 0 1.76 0.736t0.768 1.792v2.912q0 0.512-0.32 0.736t-0.96-0.096q-0.768-0.64-1.664-0.64z"></path>
</svg>
