<!-- Generated by IcoMoon.io -->
<svg version="1.1" xmlns="http://www.w3.org/2000/svg" width="30" height="32" viewBox="0 0 30 32">
<title>upload</title>
<path d="M0 24.512v-2.336q0-1.056 0.768-1.792t1.824-0.768 1.792 0.768 0.768 1.792v2.336q0 0.544 0.384 0.928t0.96 0.416h16.992q0.576 0 0.96-0.416t0.384-0.928v-2.336q0-1.056 0.768-1.792t1.792-0.768 1.824 0.768 0.768 1.792v2.336q0 2.688-1.888 4.576t-4.608 1.92h-16.992q-2.688 0-4.576-1.888t-1.92-4.608zM4.96 11.488q0-1.056 0.768-1.824l7.904-7.904q0.736-0.736 1.824-0.736 1.056 0 1.792 0.736l7.776 7.744q0.736 0.768 0.736 1.824t-0.736 1.824q-0.768 0.736-1.824 0.736t-1.824-0.736l-3.36-3.36v11.008q0 1.056-0.768 1.824t-1.792 0.768q-1.056 0-1.824-0.768t-0.768-1.824v-11.008l-3.52 3.52q-0.768 0.736-1.824 0.736t-1.792-0.736-0.768-1.824z"></path>
</svg>
