<!-- Generated by IcoMoon.io -->
<svg version="1.1" xmlns="http://www.w3.org/2000/svg" width="33" height="32" viewBox="0 0 33 32">
<title>warning-empty</title>
<path d="M16.448 4.768q-1.568 0-2.592 1.76l-9.856 16.416q-1.024 1.76-0.352 3.040t2.784 1.28h20q2.080 0 2.784-1.28t-0.384-3.040l-9.824-16.416q-1.056-1.76-2.56-1.76zM16.448 1.408q3.392 0 5.408 3.424l9.856 16.416q2.016 3.36 0.384 6.368-1.664 2.976-5.664 2.976h-20q-3.936 0-5.664-2.976-1.696-2.944 0.352-6.368l9.888-16.416q1.984-3.424 5.44-3.424zM14.24 22.272q0-2.208 2.208-2.208 2.144 0 2.144 2.208 0 2.144-2.144 2.144-2.208 0-2.208-2.144zM18.912 12.256q0 0.448-0.192 0.928l-2.272 5.728q-1.408-3.456-2.336-5.728-0.192-0.48-0.192-0.928 0-1.024 0.736-1.76t1.792-0.768 1.76 0.768 0.704 1.76z"></path>
</svg>
